<svg xmlns="http://www.w3.org/2000/svg" viewBox="0 0 250 250">
<rect width="250" height="250" fill="#000000"/>
  <path d="
  m 80.62 170.5c9.29-15.46 30.07-26.24 40.42-45.39 3.32-6.03 6.63-15.45 5.4-23.22-2.63-16.96-13.71-29.17-29.34-29.17-11.26 0-19.65 5.81-25.04 14.42-5.8-9.05-14.05-14.42-25.41-14.42-17.19 0-30.65 13.72-30.65 34.54 0 19.47 13.18 32.7 23.64 43.43 7.7 7.95 15.62 14.35 19.47 20.32 1.6-3.95 2.67-5.91 4.5-8.82-14.22-15.3-38.7-31.17-38.7-54.6 0-13.23 8.34-24.22 21.06-24.22 13.64 0 20.08 10.66 21.68 21.32h8.07c1.6-11.22 8.31-21.32 21.14-21.32 13.07 0 20.71 10.72 20.76 23.62 0.06 18.76-17.6 30.6-29.08 41.95-9.11 8.66-18.84 18.88-23.43 32.04h60.95v-10.48h-45.44z" fill="#f9616e"/>
  <path d="
  m 205.8 108.2c-2.86 0-4.64 0.48-7.33 1.14 4.09-5.45 4.47-10.84 3.98-17.93-1.18-13.49-12.59-24.76-26.18-24.76h-0.39c-14.22 0-25.59 12.21-25.59 26.95 0 7.54 2.9 13.46 6.75 18.2-3.18-1.75-6.75-2.63-11.12-2.63-13.95 0-25.32 10.93-25.32 24.8 0 13.01 10.35 24.11 23.07 24.11 2.04 0 3.27-0.17 5.26-0.6l-17.6 25.11h11.37l22.13-29.97c3.18-4.39 5.22-7.96 5.98-14.47 1.98 6.23 1.88 10.92 1.13 19.22-1.24 11.63-7.05 20.83-18.02 25.22h45.13c-11.42-4.39-17.39-12.47-17.72-30.3l0.6-0.22c5.7 8.13 12.94 13.42 23.66 13.42 15.24 0 28.41-12.81 28.41-28.74-0.06-15.02-12.57-28.55-28.2-28.55z
  m -59.88 41.3c-9.67 0-16.21-7.81-16.21-15.81 0-9.26 7.46-16.08 16.21-16.08 9.17 0 15.63 7.37 15.63 16.08 0 8.77-7.08 15.81-15.63 15.81z" fill="#eee"/>
</svg>
